<svg version="1.1" id="Layer_1" xmlns="http://www.w3.org/2000/svg" xmlns:xlink="http://www.w3.org/1999/xlink" x="0px" y="0px" width="300px" height="300px" viewBox="0 0 261.693 280" enable-background="new 0 0 243 260"  xml:space="preserve"><path fill="#3b82f6" d="M235.815 45.705c0 -18.135 9.466 -34.063 23.724 -43.088 -3.263 -0.312 -6.882 -0.463 -10.22 -0.463 -31.188 0 -58.897 13.515 -78.228 35 6.354 10.166 10.123 22.842 10.123 36.562 0 18.135 -6.58 34.397 -16.994 45.521 -10.22 -13.806 -28.032 -22.68 -36.4 -28.076 -2.746 -1.776 -5.018 -4.706 -5.018 -8.174 0 -4.75 3.866 -8.616 8.616 -8.616 3.855 0 6.171 3.123 8.389 6.02 2.1 2.736 7.345 8.831 9.876 11.771a4.449 4.449 0 0 0 4.932 1.26l4.76 -1.776 -3.802 -1.627s-3.769 -8.282 -5.126 -11.663l12.277 6.149 -0.614 5.202 6.128 -6.041c1.26 -1.249 1.249 -3.284 -0.032 -4.501l-4.922 -4.706c-3.403 -4.017 -3.813 -9.973 -6.472 -15.97 -3.845 -8.723 -9.122 -13.839 -9.122 -13.839 0 6.364 -2.133 10.608 -2.133 10.608s-7.567 -4.03 -17.433 -2.839c-9.061 0.057 -17.506 -5.391 -20.998 -14.058v0.002l-0.001 -0.003s-2.687 11.777 7.485 19.183q-0.233 0.155 -0.463 0.318c-6.327 2.072 -13.455 0.115 -17.791 -5.2 0 0 -1.006 7.691 3.898 12.3 1.505 1.414 3.155 2.022 4.724 2.192 -2.922 4.28 -4.961 9.315 -5.071 14.63 -0.312 14.636 4.277 20.285 14.237 30.681 1.689 1.761 2.38 3.996 2.38 5.751 0 4.491 -3.629 8.131 -8.12 8.131 -2.283 0 -4.929 -1.242 -6.623 -2.734 -11.638 -10.251 -21.207 -29.047 -21.207 -49.896 0 -13.688 3.747 -26.33 10.091 -36.486C71.335 15.702 43.615 2.154 12.395 2.154c-3.339 0 -6.978 0.151 -10.241 0.463 14.258 9.024 23.724 24.952 23.724 43.088 0 15.702 -7.118 29.756 -18.286 39.114 22.239 3.791 39.178 23.154 39.178 46.48 0 2.649 -0.237 5.245 -0.657 7.775 1.702 -0.129 3.435 -0.151 5.181 -0.194 25.297 -0.592 53.986 11.071 58.595 37.315 3.232 18.397 9.316 37.529 20.509 55.622 7.417 11.991 9.744 22.045 0.437 29.464 -7.538 6.009 -23.521 6.128 -30.428 -21.468a24.307 24.307 0 0 1 14.043 5.208l-16.038 -30.667 -14.912 31.231a24.307 24.307 0 0 1 13.437 -5.691c0.094 9.502 1.704 21.338 8.127 27.848 6.114 6.197 14.313 10.103 22.562 10.103 8.616 0 16.549 -3.412 23.133 -9.638 8.064 -7.626 16.023 -20.156 6.479 -45.805 -7.646 -20.548 -8.919 -33.984 -4.513 -48.982 6.413 -21.833 32.445 -34.541 57.675 -34.541 1.744 0 3.467 0.064 5.181 0.194a47.306 47.306 0 0 1 -0.657 -7.775c0 -23.326 16.94 -42.689 39.178 -46.48 -11.167 -9.359 -18.286 -23.412 -18.286 -39.114"/></svg>